G75*
%MOIN*%
%OFA0B0*%
%FSLAX25Y25*%
%IPPOS*%
%LPD*%
%AMOC8*
5,1,8,0,0,1.08239X$1,22.5*
%
%ADD10C,0.14580*%
%ADD11OC8,0.07400*%
%ADD12C,0.00039*%
%ADD13R,0.09068X0.06312*%
D10*
X0065764Y0030390D03*
X0054346Y0048894D03*
X0077575Y0048894D03*
D11*
X0076000Y0116000D03*
X0086000Y0116000D03*
D12*
X0135823Y0116000D02*
X0135858Y0115593D01*
X0135964Y0115199D01*
X0136137Y0114829D01*
X0136371Y0114494D01*
X0136659Y0114206D01*
X0136994Y0113971D01*
X0137364Y0113799D01*
X0137759Y0113693D01*
X0138165Y0113657D01*
X0138572Y0113693D01*
X0138967Y0113799D01*
X0139337Y0113971D01*
X0139671Y0114206D01*
X0139960Y0114494D01*
X0140194Y0114829D01*
X0140367Y0115199D01*
X0140472Y0115593D01*
X0140508Y0116000D01*
X0140472Y0116407D01*
X0140367Y0116801D01*
X0140194Y0117171D01*
X0139960Y0117506D01*
X0139671Y0117794D01*
X0139337Y0118029D01*
X0138967Y0118201D01*
X0138572Y0118307D01*
X0138165Y0118343D01*
X0137759Y0118307D01*
X0137364Y0118201D01*
X0136994Y0118029D01*
X0136659Y0117794D01*
X0136371Y0117506D01*
X0136137Y0117171D01*
X0135964Y0116801D01*
X0135858Y0116407D01*
X0135823Y0116000D01*
X0135824Y0116008D02*
X0140507Y0116008D01*
X0140504Y0116046D02*
X0135827Y0116046D01*
X0135830Y0116084D02*
X0140501Y0116084D01*
X0140497Y0116122D02*
X0135833Y0116122D01*
X0135837Y0116159D02*
X0140494Y0116159D01*
X0140491Y0116197D02*
X0135840Y0116197D01*
X0135843Y0116235D02*
X0140487Y0116235D01*
X0140484Y0116273D02*
X0135847Y0116273D01*
X0135850Y0116311D02*
X0140481Y0116311D01*
X0140477Y0116349D02*
X0135853Y0116349D01*
X0135857Y0116387D02*
X0140474Y0116387D01*
X0140468Y0116425D02*
X0135863Y0116425D01*
X0135873Y0116462D02*
X0140457Y0116462D01*
X0140447Y0116500D02*
X0135883Y0116500D01*
X0135894Y0116538D02*
X0140437Y0116538D01*
X0140427Y0116576D02*
X0135904Y0116576D01*
X0135914Y0116614D02*
X0140417Y0116614D01*
X0140407Y0116652D02*
X0135924Y0116652D01*
X0135934Y0116690D02*
X0140396Y0116690D01*
X0140386Y0116728D02*
X0135944Y0116728D01*
X0135955Y0116766D02*
X0140376Y0116766D01*
X0140365Y0116803D02*
X0135965Y0116803D01*
X0135983Y0116841D02*
X0140348Y0116841D01*
X0140330Y0116879D02*
X0136001Y0116879D01*
X0136018Y0116917D02*
X0140313Y0116917D01*
X0140295Y0116955D02*
X0136036Y0116955D01*
X0136053Y0116993D02*
X0140277Y0116993D01*
X0140260Y0117031D02*
X0136071Y0117031D01*
X0136089Y0117069D02*
X0140242Y0117069D01*
X0140224Y0117106D02*
X0136106Y0117106D01*
X0136124Y0117144D02*
X0140207Y0117144D01*
X0140186Y0117182D02*
X0136144Y0117182D01*
X0136171Y0117220D02*
X0140160Y0117220D01*
X0140133Y0117258D02*
X0136197Y0117258D01*
X0136224Y0117296D02*
X0140107Y0117296D01*
X0140080Y0117334D02*
X0136250Y0117334D01*
X0136277Y0117372D02*
X0140054Y0117372D01*
X0140027Y0117410D02*
X0136303Y0117410D01*
X0136330Y0117447D02*
X0140001Y0117447D01*
X0139974Y0117485D02*
X0136356Y0117485D01*
X0136388Y0117523D02*
X0139943Y0117523D01*
X0139905Y0117561D02*
X0136426Y0117561D01*
X0136464Y0117599D02*
X0139867Y0117599D01*
X0139829Y0117637D02*
X0136502Y0117637D01*
X0136540Y0117675D02*
X0139791Y0117675D01*
X0139753Y0117713D02*
X0136578Y0117713D01*
X0136615Y0117750D02*
X0139715Y0117750D01*
X0139677Y0117788D02*
X0136653Y0117788D01*
X0136705Y0117826D02*
X0139626Y0117826D01*
X0139572Y0117864D02*
X0136759Y0117864D01*
X0136813Y0117902D02*
X0139518Y0117902D01*
X0139464Y0117940D02*
X0136867Y0117940D01*
X0136921Y0117978D02*
X0139409Y0117978D01*
X0139355Y0118016D02*
X0136975Y0118016D01*
X0137047Y0118054D02*
X0139283Y0118054D01*
X0139202Y0118091D02*
X0137129Y0118091D01*
X0137210Y0118129D02*
X0139121Y0118129D01*
X0139040Y0118167D02*
X0137291Y0118167D01*
X0137379Y0118205D02*
X0138952Y0118205D01*
X0138811Y0118243D02*
X0137520Y0118243D01*
X0137661Y0118281D02*
X0138670Y0118281D01*
X0138439Y0118319D02*
X0137892Y0118319D01*
X0135825Y0115970D02*
X0140505Y0115970D01*
X0140502Y0115932D02*
X0135829Y0115932D01*
X0135832Y0115894D02*
X0140499Y0115894D01*
X0140495Y0115856D02*
X0135835Y0115856D01*
X0135839Y0115819D02*
X0140492Y0115819D01*
X0140489Y0115781D02*
X0135842Y0115781D01*
X0135845Y0115743D02*
X0140485Y0115743D01*
X0140482Y0115705D02*
X0135849Y0115705D01*
X0135852Y0115667D02*
X0140479Y0115667D01*
X0140476Y0115629D02*
X0135855Y0115629D01*
X0135859Y0115591D02*
X0140472Y0115591D01*
X0140462Y0115553D02*
X0135869Y0115553D01*
X0135879Y0115515D02*
X0140452Y0115515D01*
X0140441Y0115478D02*
X0135889Y0115478D01*
X0135899Y0115440D02*
X0140431Y0115440D01*
X0140421Y0115402D02*
X0135910Y0115402D01*
X0135920Y0115364D02*
X0140411Y0115364D01*
X0140401Y0115326D02*
X0135930Y0115326D01*
X0135940Y0115288D02*
X0140391Y0115288D01*
X0140380Y0115250D02*
X0135950Y0115250D01*
X0135961Y0115212D02*
X0140370Y0115212D01*
X0140355Y0115175D02*
X0135975Y0115175D01*
X0135993Y0115137D02*
X0140338Y0115137D01*
X0140320Y0115099D02*
X0136011Y0115099D01*
X0136028Y0115061D02*
X0140302Y0115061D01*
X0140285Y0115023D02*
X0136046Y0115023D01*
X0136064Y0114985D02*
X0140267Y0114985D01*
X0140249Y0114947D02*
X0136081Y0114947D01*
X0136099Y0114909D02*
X0140232Y0114909D01*
X0140214Y0114871D02*
X0136117Y0114871D01*
X0136134Y0114834D02*
X0140196Y0114834D01*
X0140171Y0114796D02*
X0136160Y0114796D01*
X0136186Y0114758D02*
X0140144Y0114758D01*
X0140118Y0114720D02*
X0136213Y0114720D01*
X0136239Y0114682D02*
X0140091Y0114682D01*
X0140065Y0114644D02*
X0136266Y0114644D01*
X0136292Y0114606D02*
X0140038Y0114606D01*
X0140012Y0114568D02*
X0136319Y0114568D01*
X0136345Y0114531D02*
X0139985Y0114531D01*
X0139958Y0114493D02*
X0136372Y0114493D01*
X0136410Y0114455D02*
X0139921Y0114455D01*
X0139883Y0114417D02*
X0136448Y0114417D01*
X0136486Y0114379D02*
X0139845Y0114379D01*
X0139807Y0114341D02*
X0136524Y0114341D01*
X0136562Y0114303D02*
X0139769Y0114303D01*
X0139731Y0114265D02*
X0136600Y0114265D01*
X0136637Y0114227D02*
X0139693Y0114227D01*
X0139649Y0114190D02*
X0136682Y0114190D01*
X0136736Y0114152D02*
X0139594Y0114152D01*
X0139540Y0114114D02*
X0136790Y0114114D01*
X0136845Y0114076D02*
X0139486Y0114076D01*
X0139432Y0114038D02*
X0136899Y0114038D01*
X0136953Y0114000D02*
X0139378Y0114000D01*
X0139317Y0113962D02*
X0137013Y0113962D01*
X0137095Y0113924D02*
X0139236Y0113924D01*
X0139155Y0113887D02*
X0137176Y0113887D01*
X0137257Y0113849D02*
X0139074Y0113849D01*
X0138992Y0113811D02*
X0137338Y0113811D01*
X0137461Y0113773D02*
X0138870Y0113773D01*
X0138729Y0113735D02*
X0137602Y0113735D01*
X0137743Y0113697D02*
X0138588Y0113697D01*
X0138186Y0113659D02*
X0138145Y0113659D01*
X0181492Y0116000D02*
X0181528Y0115593D01*
X0181633Y0115199D01*
X0181806Y0114829D01*
X0182040Y0114494D01*
X0182329Y0114206D01*
X0182663Y0113971D01*
X0183033Y0113799D01*
X0183428Y0113693D01*
X0183835Y0113657D01*
X0184241Y0113693D01*
X0184636Y0113799D01*
X0185006Y0113971D01*
X0185341Y0114206D01*
X0185629Y0114494D01*
X0185863Y0114829D01*
X0186036Y0115199D01*
X0186142Y0115593D01*
X0186177Y0116000D01*
X0186142Y0116407D01*
X0186036Y0116801D01*
X0185863Y0117171D01*
X0185629Y0117506D01*
X0185341Y0117794D01*
X0185006Y0118029D01*
X0184636Y0118201D01*
X0184241Y0118307D01*
X0183835Y0118343D01*
X0183428Y0118307D01*
X0183033Y0118201D01*
X0182663Y0118029D01*
X0182329Y0117794D01*
X0182040Y0117506D01*
X0181806Y0117171D01*
X0181633Y0116801D01*
X0181528Y0116407D01*
X0181492Y0116000D01*
X0181493Y0116008D02*
X0186176Y0116008D01*
X0186173Y0116046D02*
X0181496Y0116046D01*
X0181499Y0116084D02*
X0186170Y0116084D01*
X0186167Y0116122D02*
X0181503Y0116122D01*
X0181506Y0116159D02*
X0186163Y0116159D01*
X0186160Y0116197D02*
X0181509Y0116197D01*
X0181513Y0116235D02*
X0186157Y0116235D01*
X0186153Y0116273D02*
X0181516Y0116273D01*
X0181519Y0116311D02*
X0186150Y0116311D01*
X0186147Y0116349D02*
X0181523Y0116349D01*
X0181526Y0116387D02*
X0186143Y0116387D01*
X0186137Y0116425D02*
X0181532Y0116425D01*
X0181543Y0116462D02*
X0186127Y0116462D01*
X0186117Y0116500D02*
X0181553Y0116500D01*
X0181563Y0116538D02*
X0186106Y0116538D01*
X0186096Y0116576D02*
X0181573Y0116576D01*
X0181583Y0116614D02*
X0186086Y0116614D01*
X0186076Y0116652D02*
X0181593Y0116652D01*
X0181604Y0116690D02*
X0186066Y0116690D01*
X0186056Y0116728D02*
X0181614Y0116728D01*
X0181624Y0116766D02*
X0186045Y0116766D01*
X0186035Y0116803D02*
X0181635Y0116803D01*
X0181652Y0116841D02*
X0186017Y0116841D01*
X0185999Y0116879D02*
X0181670Y0116879D01*
X0181687Y0116917D02*
X0185982Y0116917D01*
X0185964Y0116955D02*
X0181705Y0116955D01*
X0181723Y0116993D02*
X0185947Y0116993D01*
X0185929Y0117031D02*
X0181740Y0117031D01*
X0181758Y0117069D02*
X0185911Y0117069D01*
X0185894Y0117106D02*
X0181776Y0117106D01*
X0181793Y0117144D02*
X0185876Y0117144D01*
X0185856Y0117182D02*
X0181814Y0117182D01*
X0181840Y0117220D02*
X0185829Y0117220D01*
X0185803Y0117258D02*
X0181867Y0117258D01*
X0181893Y0117296D02*
X0185776Y0117296D01*
X0185750Y0117334D02*
X0181920Y0117334D01*
X0181946Y0117372D02*
X0185723Y0117372D01*
X0185697Y0117410D02*
X0181973Y0117410D01*
X0181999Y0117447D02*
X0185670Y0117447D01*
X0185644Y0117485D02*
X0182026Y0117485D01*
X0182057Y0117523D02*
X0185612Y0117523D01*
X0185574Y0117561D02*
X0182095Y0117561D01*
X0182133Y0117599D02*
X0185536Y0117599D01*
X0185498Y0117637D02*
X0182171Y0117637D01*
X0182209Y0117675D02*
X0185460Y0117675D01*
X0185422Y0117713D02*
X0182247Y0117713D01*
X0182285Y0117750D02*
X0185385Y0117750D01*
X0185347Y0117788D02*
X0182323Y0117788D01*
X0182374Y0117826D02*
X0185295Y0117826D01*
X0185241Y0117864D02*
X0182428Y0117864D01*
X0182482Y0117902D02*
X0185187Y0117902D01*
X0185133Y0117940D02*
X0182536Y0117940D01*
X0182591Y0117978D02*
X0185079Y0117978D01*
X0185025Y0118016D02*
X0182645Y0118016D01*
X0182717Y0118054D02*
X0184953Y0118054D01*
X0184871Y0118091D02*
X0182798Y0118091D01*
X0182879Y0118129D02*
X0184790Y0118129D01*
X0184709Y0118167D02*
X0182960Y0118167D01*
X0183048Y0118205D02*
X0184621Y0118205D01*
X0184480Y0118243D02*
X0183189Y0118243D01*
X0183330Y0118281D02*
X0184339Y0118281D01*
X0184108Y0118319D02*
X0183561Y0118319D01*
X0181495Y0115970D02*
X0186175Y0115970D01*
X0186171Y0115932D02*
X0181498Y0115932D01*
X0181501Y0115894D02*
X0186168Y0115894D01*
X0186165Y0115856D02*
X0181505Y0115856D01*
X0181508Y0115819D02*
X0186161Y0115819D01*
X0186158Y0115781D02*
X0181511Y0115781D01*
X0181515Y0115743D02*
X0186155Y0115743D01*
X0186151Y0115705D02*
X0181518Y0115705D01*
X0181521Y0115667D02*
X0186148Y0115667D01*
X0186145Y0115629D02*
X0181524Y0115629D01*
X0181528Y0115591D02*
X0186141Y0115591D01*
X0186131Y0115553D02*
X0181538Y0115553D01*
X0181548Y0115515D02*
X0186121Y0115515D01*
X0186111Y0115478D02*
X0181559Y0115478D01*
X0181569Y0115440D02*
X0186100Y0115440D01*
X0186090Y0115402D02*
X0181579Y0115402D01*
X0181589Y0115364D02*
X0186080Y0115364D01*
X0186070Y0115326D02*
X0181599Y0115326D01*
X0181609Y0115288D02*
X0186060Y0115288D01*
X0186050Y0115250D02*
X0181620Y0115250D01*
X0181630Y0115212D02*
X0186039Y0115212D01*
X0186025Y0115175D02*
X0181645Y0115175D01*
X0181662Y0115137D02*
X0186007Y0115137D01*
X0185989Y0115099D02*
X0181680Y0115099D01*
X0181698Y0115061D02*
X0185972Y0115061D01*
X0185954Y0115023D02*
X0181715Y0115023D01*
X0181733Y0114985D02*
X0185936Y0114985D01*
X0185919Y0114947D02*
X0181751Y0114947D01*
X0181768Y0114909D02*
X0185901Y0114909D01*
X0185883Y0114871D02*
X0181786Y0114871D01*
X0181804Y0114834D02*
X0185866Y0114834D01*
X0185840Y0114796D02*
X0181829Y0114796D01*
X0181856Y0114758D02*
X0185814Y0114758D01*
X0185787Y0114720D02*
X0181882Y0114720D01*
X0181909Y0114682D02*
X0185761Y0114682D01*
X0185734Y0114644D02*
X0181935Y0114644D01*
X0181962Y0114606D02*
X0185708Y0114606D01*
X0185681Y0114568D02*
X0181988Y0114568D01*
X0182015Y0114531D02*
X0185655Y0114531D01*
X0185628Y0114493D02*
X0182042Y0114493D01*
X0182079Y0114455D02*
X0185590Y0114455D01*
X0185552Y0114417D02*
X0182117Y0114417D01*
X0182155Y0114379D02*
X0185514Y0114379D01*
X0185476Y0114341D02*
X0182193Y0114341D01*
X0182231Y0114303D02*
X0185438Y0114303D01*
X0185400Y0114265D02*
X0182269Y0114265D01*
X0182307Y0114227D02*
X0185363Y0114227D01*
X0185318Y0114190D02*
X0182351Y0114190D01*
X0182406Y0114152D02*
X0185264Y0114152D01*
X0185210Y0114114D02*
X0182460Y0114114D01*
X0182514Y0114076D02*
X0185155Y0114076D01*
X0185101Y0114038D02*
X0182568Y0114038D01*
X0182622Y0114000D02*
X0185047Y0114000D01*
X0184987Y0113962D02*
X0182683Y0113962D01*
X0182764Y0113924D02*
X0184905Y0113924D01*
X0184824Y0113887D02*
X0182845Y0113887D01*
X0182926Y0113849D02*
X0184743Y0113849D01*
X0184662Y0113811D02*
X0183008Y0113811D01*
X0183130Y0113773D02*
X0184539Y0113773D01*
X0184398Y0113735D02*
X0183271Y0113735D01*
X0183412Y0113697D02*
X0184257Y0113697D01*
X0183855Y0113659D02*
X0183814Y0113659D01*
D13*
X0185685Y0054858D03*
X0185685Y0037142D03*
X0146315Y0037142D03*
X0146315Y0054858D03*
M02*
