G75*
%MOIN*%
%OFA0B0*%
%FSLAX25Y25*%
%IPPOS*%
%LPD*%
%AMOC8*
5,1,8,0,0,1.08239X$1,22.5*
%
%ADD10C,0.14580*%
%ADD11OC8,0.07400*%
%ADD12C,0.00039*%
%ADD13C,0.06312*%
%ADD14R,0.08477X0.08477*%
%ADD15C,0.08477*%
D10*
X0066688Y0049394D03*
X0089917Y0049394D03*
X0078106Y0030890D03*
D11*
X0088342Y0106500D03*
X0098342Y0106500D03*
D12*
X0158165Y0106500D02*
X0158200Y0106093D01*
X0158306Y0105699D01*
X0158478Y0105329D01*
X0158713Y0104994D01*
X0159001Y0104706D01*
X0159336Y0104471D01*
X0159706Y0104299D01*
X0160100Y0104193D01*
X0160507Y0104157D01*
X0160914Y0104193D01*
X0161308Y0104299D01*
X0161678Y0104471D01*
X0162013Y0104706D01*
X0162302Y0104994D01*
X0162536Y0105329D01*
X0162708Y0105699D01*
X0162814Y0106093D01*
X0162850Y0106500D01*
X0162814Y0106907D01*
X0162708Y0107301D01*
X0162536Y0107671D01*
X0162302Y0108006D01*
X0162013Y0108294D01*
X0161678Y0108529D01*
X0161308Y0108701D01*
X0160914Y0108807D01*
X0160507Y0108843D01*
X0160100Y0108807D01*
X0159706Y0108701D01*
X0159336Y0108529D01*
X0159001Y0108294D01*
X0158713Y0108006D01*
X0158478Y0107671D01*
X0158306Y0107301D01*
X0158200Y0106907D01*
X0158165Y0106500D01*
X0158165Y0106507D02*
X0162849Y0106507D01*
X0162847Y0106469D02*
X0158167Y0106469D01*
X0158171Y0106431D02*
X0162844Y0106431D01*
X0162840Y0106394D02*
X0158174Y0106394D01*
X0158177Y0106356D02*
X0162837Y0106356D01*
X0162834Y0106318D02*
X0158181Y0106318D01*
X0158184Y0106280D02*
X0162830Y0106280D01*
X0162827Y0106242D02*
X0158187Y0106242D01*
X0158190Y0106204D02*
X0162824Y0106204D01*
X0162821Y0106166D02*
X0158194Y0106166D01*
X0158197Y0106128D02*
X0162817Y0106128D01*
X0162813Y0106091D02*
X0158201Y0106091D01*
X0158211Y0106053D02*
X0162803Y0106053D01*
X0162793Y0106015D02*
X0158221Y0106015D01*
X0158231Y0105977D02*
X0162783Y0105977D01*
X0162773Y0105939D02*
X0158241Y0105939D01*
X0158252Y0105901D02*
X0162763Y0105901D01*
X0162752Y0105863D02*
X0158262Y0105863D01*
X0158272Y0105825D02*
X0162742Y0105825D01*
X0162732Y0105787D02*
X0158282Y0105787D01*
X0158292Y0105750D02*
X0162722Y0105750D01*
X0162712Y0105712D02*
X0158303Y0105712D01*
X0158318Y0105674D02*
X0162697Y0105674D01*
X0162679Y0105636D02*
X0158335Y0105636D01*
X0158353Y0105598D02*
X0162661Y0105598D01*
X0162644Y0105560D02*
X0158371Y0105560D01*
X0158388Y0105522D02*
X0162626Y0105522D01*
X0162608Y0105484D02*
X0158406Y0105484D01*
X0158424Y0105447D02*
X0162591Y0105447D01*
X0162573Y0105409D02*
X0158441Y0105409D01*
X0158459Y0105371D02*
X0162555Y0105371D01*
X0162538Y0105333D02*
X0158476Y0105333D01*
X0158502Y0105295D02*
X0162512Y0105295D01*
X0162486Y0105257D02*
X0158529Y0105257D01*
X0158555Y0105219D02*
X0162459Y0105219D01*
X0162433Y0105181D02*
X0158582Y0105181D01*
X0158608Y0105144D02*
X0162406Y0105144D01*
X0162380Y0105106D02*
X0158635Y0105106D01*
X0158661Y0105068D02*
X0162353Y0105068D01*
X0162327Y0105030D02*
X0158688Y0105030D01*
X0158715Y0104992D02*
X0162300Y0104992D01*
X0162262Y0104954D02*
X0158753Y0104954D01*
X0158791Y0104916D02*
X0162224Y0104916D01*
X0162186Y0104878D02*
X0158828Y0104878D01*
X0158866Y0104840D02*
X0162148Y0104840D01*
X0162110Y0104803D02*
X0158904Y0104803D01*
X0158942Y0104765D02*
X0162072Y0104765D01*
X0162034Y0104727D02*
X0158980Y0104727D01*
X0159025Y0104689D02*
X0161989Y0104689D01*
X0161935Y0104651D02*
X0159079Y0104651D01*
X0159133Y0104613D02*
X0161881Y0104613D01*
X0161827Y0104575D02*
X0159187Y0104575D01*
X0159241Y0104537D02*
X0161773Y0104537D01*
X0161719Y0104500D02*
X0159296Y0104500D01*
X0159357Y0104462D02*
X0161658Y0104462D01*
X0161576Y0104424D02*
X0159438Y0104424D01*
X0159519Y0104386D02*
X0161495Y0104386D01*
X0161414Y0104348D02*
X0159600Y0104348D01*
X0159682Y0104310D02*
X0161333Y0104310D01*
X0161209Y0104272D02*
X0159805Y0104272D01*
X0159946Y0104234D02*
X0161068Y0104234D01*
X0160927Y0104196D02*
X0160087Y0104196D01*
X0160494Y0104159D02*
X0160520Y0104159D01*
X0162846Y0106545D02*
X0158169Y0106545D01*
X0158172Y0106583D02*
X0162842Y0106583D01*
X0162839Y0106621D02*
X0158175Y0106621D01*
X0158178Y0106659D02*
X0162836Y0106659D01*
X0162833Y0106697D02*
X0158182Y0106697D01*
X0158185Y0106735D02*
X0162829Y0106735D01*
X0162826Y0106772D02*
X0158188Y0106772D01*
X0158192Y0106810D02*
X0162823Y0106810D01*
X0162819Y0106848D02*
X0158195Y0106848D01*
X0158198Y0106886D02*
X0162816Y0106886D01*
X0162810Y0106924D02*
X0158205Y0106924D01*
X0158215Y0106962D02*
X0162799Y0106962D01*
X0162789Y0107000D02*
X0158225Y0107000D01*
X0158235Y0107038D02*
X0162779Y0107038D01*
X0162769Y0107075D02*
X0158245Y0107075D01*
X0158256Y0107113D02*
X0162759Y0107113D01*
X0162749Y0107151D02*
X0158266Y0107151D01*
X0158276Y0107189D02*
X0162738Y0107189D01*
X0162728Y0107227D02*
X0158286Y0107227D01*
X0158296Y0107265D02*
X0162718Y0107265D01*
X0162708Y0107303D02*
X0158307Y0107303D01*
X0158324Y0107341D02*
X0162690Y0107341D01*
X0162672Y0107379D02*
X0158342Y0107379D01*
X0158360Y0107416D02*
X0162655Y0107416D01*
X0162637Y0107454D02*
X0158377Y0107454D01*
X0158395Y0107492D02*
X0162619Y0107492D01*
X0162602Y0107530D02*
X0158413Y0107530D01*
X0158430Y0107568D02*
X0162584Y0107568D01*
X0162566Y0107606D02*
X0158448Y0107606D01*
X0158466Y0107644D02*
X0162549Y0107644D01*
X0162529Y0107682D02*
X0158486Y0107682D01*
X0158512Y0107719D02*
X0162502Y0107719D01*
X0162476Y0107757D02*
X0158539Y0107757D01*
X0158565Y0107795D02*
X0162449Y0107795D01*
X0162423Y0107833D02*
X0158592Y0107833D01*
X0158618Y0107871D02*
X0162396Y0107871D01*
X0162370Y0107909D02*
X0158645Y0107909D01*
X0158671Y0107947D02*
X0162343Y0107947D01*
X0162317Y0107985D02*
X0158698Y0107985D01*
X0158729Y0108022D02*
X0162285Y0108022D01*
X0162247Y0108060D02*
X0158767Y0108060D01*
X0158805Y0108098D02*
X0162209Y0108098D01*
X0162171Y0108136D02*
X0158843Y0108136D01*
X0158881Y0108174D02*
X0162134Y0108174D01*
X0162096Y0108212D02*
X0158919Y0108212D01*
X0158957Y0108250D02*
X0162058Y0108250D01*
X0162020Y0108288D02*
X0158994Y0108288D01*
X0159046Y0108326D02*
X0161969Y0108326D01*
X0161915Y0108363D02*
X0159100Y0108363D01*
X0159154Y0108401D02*
X0161860Y0108401D01*
X0161806Y0108439D02*
X0159208Y0108439D01*
X0159262Y0108477D02*
X0161752Y0108477D01*
X0161698Y0108515D02*
X0159316Y0108515D01*
X0159388Y0108553D02*
X0161627Y0108553D01*
X0161545Y0108591D02*
X0159469Y0108591D01*
X0159550Y0108629D02*
X0161464Y0108629D01*
X0161383Y0108666D02*
X0159631Y0108666D01*
X0159718Y0108704D02*
X0161297Y0108704D01*
X0161155Y0108742D02*
X0159859Y0108742D01*
X0160000Y0108780D02*
X0161014Y0108780D01*
X0160789Y0108818D02*
X0160226Y0108818D01*
X0203834Y0106500D02*
X0203869Y0106093D01*
X0203975Y0105699D01*
X0204148Y0105329D01*
X0204382Y0104994D01*
X0204671Y0104706D01*
X0205005Y0104471D01*
X0205375Y0104299D01*
X0205770Y0104193D01*
X0206176Y0104157D01*
X0206583Y0104193D01*
X0206978Y0104299D01*
X0207348Y0104471D01*
X0207682Y0104706D01*
X0207971Y0104994D01*
X0208205Y0105329D01*
X0208378Y0105699D01*
X0208484Y0106093D01*
X0208519Y0106500D01*
X0208484Y0106907D01*
X0208378Y0107301D01*
X0208205Y0107671D01*
X0207971Y0108006D01*
X0207682Y0108294D01*
X0207348Y0108529D01*
X0206978Y0108701D01*
X0206583Y0108807D01*
X0206176Y0108843D01*
X0205770Y0108807D01*
X0205375Y0108701D01*
X0205005Y0108529D01*
X0204671Y0108294D01*
X0204382Y0108006D01*
X0204148Y0107671D01*
X0203975Y0107301D01*
X0203869Y0106907D01*
X0203834Y0106500D01*
X0203835Y0106507D02*
X0208518Y0106507D01*
X0208516Y0106469D02*
X0203837Y0106469D01*
X0203840Y0106431D02*
X0208513Y0106431D01*
X0208510Y0106394D02*
X0203843Y0106394D01*
X0203846Y0106356D02*
X0208506Y0106356D01*
X0208503Y0106318D02*
X0203850Y0106318D01*
X0203853Y0106280D02*
X0208500Y0106280D01*
X0208496Y0106242D02*
X0203856Y0106242D01*
X0203860Y0106204D02*
X0208493Y0106204D01*
X0208490Y0106166D02*
X0203863Y0106166D01*
X0203866Y0106128D02*
X0208487Y0106128D01*
X0208483Y0106091D02*
X0203870Y0106091D01*
X0203880Y0106053D02*
X0208473Y0106053D01*
X0208462Y0106015D02*
X0203890Y0106015D01*
X0203901Y0105977D02*
X0208452Y0105977D01*
X0208442Y0105939D02*
X0203911Y0105939D01*
X0203921Y0105901D02*
X0208432Y0105901D01*
X0208422Y0105863D02*
X0203931Y0105863D01*
X0203941Y0105825D02*
X0208412Y0105825D01*
X0208401Y0105787D02*
X0203951Y0105787D01*
X0203962Y0105750D02*
X0208391Y0105750D01*
X0208381Y0105712D02*
X0203972Y0105712D01*
X0203987Y0105674D02*
X0208366Y0105674D01*
X0208348Y0105636D02*
X0204005Y0105636D01*
X0204022Y0105598D02*
X0208331Y0105598D01*
X0208313Y0105560D02*
X0204040Y0105560D01*
X0204058Y0105522D02*
X0208295Y0105522D01*
X0208278Y0105484D02*
X0204075Y0105484D01*
X0204093Y0105447D02*
X0208260Y0105447D01*
X0208242Y0105409D02*
X0204110Y0105409D01*
X0204128Y0105371D02*
X0208225Y0105371D01*
X0208207Y0105333D02*
X0204146Y0105333D01*
X0204171Y0105295D02*
X0208182Y0105295D01*
X0208155Y0105257D02*
X0204198Y0105257D01*
X0204224Y0105219D02*
X0208129Y0105219D01*
X0208102Y0105181D02*
X0204251Y0105181D01*
X0204277Y0105144D02*
X0208076Y0105144D01*
X0208049Y0105106D02*
X0204304Y0105106D01*
X0204330Y0105068D02*
X0208022Y0105068D01*
X0207996Y0105030D02*
X0204357Y0105030D01*
X0204384Y0104992D02*
X0207969Y0104992D01*
X0207931Y0104954D02*
X0204422Y0104954D01*
X0204460Y0104916D02*
X0207893Y0104916D01*
X0207855Y0104878D02*
X0204498Y0104878D01*
X0204536Y0104840D02*
X0207817Y0104840D01*
X0207779Y0104803D02*
X0204573Y0104803D01*
X0204611Y0104765D02*
X0207742Y0104765D01*
X0207704Y0104727D02*
X0204649Y0104727D01*
X0204694Y0104689D02*
X0207659Y0104689D01*
X0207605Y0104651D02*
X0204748Y0104651D01*
X0204802Y0104613D02*
X0207550Y0104613D01*
X0207496Y0104575D02*
X0204857Y0104575D01*
X0204911Y0104537D02*
X0207442Y0104537D01*
X0207388Y0104500D02*
X0204965Y0104500D01*
X0205026Y0104462D02*
X0207327Y0104462D01*
X0207246Y0104424D02*
X0205107Y0104424D01*
X0205188Y0104386D02*
X0207164Y0104386D01*
X0207083Y0104348D02*
X0205270Y0104348D01*
X0205351Y0104310D02*
X0207002Y0104310D01*
X0206879Y0104272D02*
X0205474Y0104272D01*
X0205615Y0104234D02*
X0206737Y0104234D01*
X0206596Y0104196D02*
X0205757Y0104196D01*
X0206164Y0104159D02*
X0206189Y0104159D01*
X0208515Y0106545D02*
X0203838Y0106545D01*
X0203841Y0106583D02*
X0208512Y0106583D01*
X0208508Y0106621D02*
X0203844Y0106621D01*
X0203848Y0106659D02*
X0208505Y0106659D01*
X0208502Y0106697D02*
X0203851Y0106697D01*
X0203854Y0106735D02*
X0208499Y0106735D01*
X0208495Y0106772D02*
X0203858Y0106772D01*
X0203861Y0106810D02*
X0208492Y0106810D01*
X0208489Y0106848D02*
X0203864Y0106848D01*
X0203868Y0106886D02*
X0208485Y0106886D01*
X0208479Y0106924D02*
X0203874Y0106924D01*
X0203884Y0106962D02*
X0208469Y0106962D01*
X0208459Y0107000D02*
X0203894Y0107000D01*
X0203905Y0107038D02*
X0208448Y0107038D01*
X0208438Y0107075D02*
X0203915Y0107075D01*
X0203925Y0107113D02*
X0208428Y0107113D01*
X0208418Y0107151D02*
X0203935Y0107151D01*
X0203945Y0107189D02*
X0208408Y0107189D01*
X0208398Y0107227D02*
X0203955Y0107227D01*
X0203966Y0107265D02*
X0208387Y0107265D01*
X0208377Y0107303D02*
X0203976Y0107303D01*
X0203994Y0107341D02*
X0208359Y0107341D01*
X0208342Y0107379D02*
X0204011Y0107379D01*
X0204029Y0107416D02*
X0208324Y0107416D01*
X0208306Y0107454D02*
X0204047Y0107454D01*
X0204064Y0107492D02*
X0208289Y0107492D01*
X0208271Y0107530D02*
X0204082Y0107530D01*
X0204100Y0107568D02*
X0208253Y0107568D01*
X0208236Y0107606D02*
X0204117Y0107606D01*
X0204135Y0107644D02*
X0208218Y0107644D01*
X0208198Y0107682D02*
X0204155Y0107682D01*
X0204181Y0107719D02*
X0208171Y0107719D01*
X0208145Y0107757D02*
X0204208Y0107757D01*
X0204234Y0107795D02*
X0208118Y0107795D01*
X0208092Y0107833D02*
X0204261Y0107833D01*
X0204288Y0107871D02*
X0208065Y0107871D01*
X0208039Y0107909D02*
X0204314Y0107909D01*
X0204341Y0107947D02*
X0208012Y0107947D01*
X0207986Y0107985D02*
X0204367Y0107985D01*
X0204399Y0108022D02*
X0207954Y0108022D01*
X0207916Y0108060D02*
X0204436Y0108060D01*
X0204474Y0108098D02*
X0207879Y0108098D01*
X0207841Y0108136D02*
X0204512Y0108136D01*
X0204550Y0108174D02*
X0207803Y0108174D01*
X0207765Y0108212D02*
X0204588Y0108212D01*
X0204626Y0108250D02*
X0207727Y0108250D01*
X0207689Y0108288D02*
X0204664Y0108288D01*
X0204715Y0108326D02*
X0207638Y0108326D01*
X0207584Y0108363D02*
X0204769Y0108363D01*
X0204823Y0108401D02*
X0207530Y0108401D01*
X0207476Y0108439D02*
X0204877Y0108439D01*
X0204931Y0108477D02*
X0207422Y0108477D01*
X0207367Y0108515D02*
X0204985Y0108515D01*
X0205057Y0108553D02*
X0207296Y0108553D01*
X0207215Y0108591D02*
X0205138Y0108591D01*
X0205219Y0108629D02*
X0207133Y0108629D01*
X0207052Y0108666D02*
X0205301Y0108666D01*
X0205387Y0108704D02*
X0206966Y0108704D01*
X0206825Y0108742D02*
X0205528Y0108742D01*
X0205669Y0108780D02*
X0206684Y0108780D01*
X0206458Y0108818D02*
X0205895Y0108818D01*
D13*
X0183342Y0059217D03*
X0183342Y0023783D03*
D14*
X0206964Y0031657D03*
D15*
X0206964Y0051343D03*
X0159720Y0051343D03*
X0159720Y0031657D03*
M02*
