G75*
%MOIN*%
%OFA0B0*%
%FSLAX25Y25*%
%IPPOS*%
%LPD*%
%AMOC8*
5,1,8,0,0,1.08239X$1,22.5*
%
%ADD10C,0.01000*%
%ADD11C,0.00000*%
D10*
X0028342Y0001500D02*
X0028342Y0131461D01*
X0237043Y0131461D01*
X0237043Y0001500D01*
X0028342Y0001500D01*
D11*
X0180586Y0023783D02*
X0180588Y0023888D01*
X0180594Y0023993D01*
X0180604Y0024097D01*
X0180618Y0024201D01*
X0180636Y0024305D01*
X0180658Y0024407D01*
X0180683Y0024509D01*
X0180713Y0024610D01*
X0180746Y0024709D01*
X0180783Y0024807D01*
X0180824Y0024904D01*
X0180869Y0024999D01*
X0180917Y0025092D01*
X0180968Y0025184D01*
X0181024Y0025273D01*
X0181082Y0025360D01*
X0181144Y0025445D01*
X0181208Y0025528D01*
X0181276Y0025608D01*
X0181347Y0025685D01*
X0181421Y0025759D01*
X0181498Y0025831D01*
X0181577Y0025900D01*
X0181659Y0025965D01*
X0181743Y0026028D01*
X0181830Y0026087D01*
X0181919Y0026143D01*
X0182010Y0026196D01*
X0182103Y0026245D01*
X0182197Y0026290D01*
X0182293Y0026332D01*
X0182391Y0026370D01*
X0182490Y0026404D01*
X0182591Y0026435D01*
X0182692Y0026461D01*
X0182795Y0026484D01*
X0182898Y0026503D01*
X0183002Y0026518D01*
X0183106Y0026529D01*
X0183211Y0026536D01*
X0183316Y0026539D01*
X0183421Y0026538D01*
X0183526Y0026533D01*
X0183630Y0026524D01*
X0183734Y0026511D01*
X0183838Y0026494D01*
X0183941Y0026473D01*
X0184043Y0026448D01*
X0184144Y0026420D01*
X0184243Y0026387D01*
X0184342Y0026351D01*
X0184439Y0026311D01*
X0184534Y0026268D01*
X0184628Y0026220D01*
X0184720Y0026170D01*
X0184810Y0026116D01*
X0184898Y0026058D01*
X0184983Y0025997D01*
X0185066Y0025933D01*
X0185147Y0025866D01*
X0185225Y0025796D01*
X0185300Y0025722D01*
X0185372Y0025647D01*
X0185442Y0025568D01*
X0185508Y0025487D01*
X0185572Y0025403D01*
X0185632Y0025317D01*
X0185688Y0025229D01*
X0185742Y0025138D01*
X0185792Y0025046D01*
X0185838Y0024952D01*
X0185881Y0024856D01*
X0185920Y0024758D01*
X0185955Y0024660D01*
X0185986Y0024559D01*
X0186014Y0024458D01*
X0186038Y0024356D01*
X0186058Y0024253D01*
X0186074Y0024149D01*
X0186086Y0024045D01*
X0186094Y0023940D01*
X0186098Y0023835D01*
X0186098Y0023731D01*
X0186094Y0023626D01*
X0186086Y0023521D01*
X0186074Y0023417D01*
X0186058Y0023313D01*
X0186038Y0023210D01*
X0186014Y0023108D01*
X0185986Y0023007D01*
X0185955Y0022906D01*
X0185920Y0022808D01*
X0185881Y0022710D01*
X0185838Y0022614D01*
X0185792Y0022520D01*
X0185742Y0022428D01*
X0185688Y0022337D01*
X0185632Y0022249D01*
X0185572Y0022163D01*
X0185508Y0022079D01*
X0185442Y0021998D01*
X0185372Y0021919D01*
X0185300Y0021844D01*
X0185225Y0021770D01*
X0185147Y0021700D01*
X0185066Y0021633D01*
X0184983Y0021569D01*
X0184898Y0021508D01*
X0184810Y0021450D01*
X0184720Y0021396D01*
X0184628Y0021346D01*
X0184534Y0021298D01*
X0184439Y0021255D01*
X0184342Y0021215D01*
X0184243Y0021179D01*
X0184144Y0021146D01*
X0184043Y0021118D01*
X0183941Y0021093D01*
X0183838Y0021072D01*
X0183734Y0021055D01*
X0183630Y0021042D01*
X0183526Y0021033D01*
X0183421Y0021028D01*
X0183316Y0021027D01*
X0183211Y0021030D01*
X0183106Y0021037D01*
X0183002Y0021048D01*
X0182898Y0021063D01*
X0182795Y0021082D01*
X0182692Y0021105D01*
X0182591Y0021131D01*
X0182490Y0021162D01*
X0182391Y0021196D01*
X0182293Y0021234D01*
X0182197Y0021276D01*
X0182103Y0021321D01*
X0182010Y0021370D01*
X0181919Y0021423D01*
X0181830Y0021479D01*
X0181743Y0021538D01*
X0181659Y0021601D01*
X0181577Y0021666D01*
X0181498Y0021735D01*
X0181421Y0021807D01*
X0181347Y0021881D01*
X0181276Y0021958D01*
X0181208Y0022038D01*
X0181144Y0022121D01*
X0181082Y0022206D01*
X0181024Y0022293D01*
X0180968Y0022382D01*
X0180917Y0022474D01*
X0180869Y0022567D01*
X0180824Y0022662D01*
X0180783Y0022759D01*
X0180746Y0022857D01*
X0180713Y0022956D01*
X0180683Y0023057D01*
X0180658Y0023159D01*
X0180636Y0023261D01*
X0180618Y0023365D01*
X0180604Y0023469D01*
X0180594Y0023573D01*
X0180588Y0023678D01*
X0180586Y0023783D01*
X0180586Y0059217D02*
X0180588Y0059322D01*
X0180594Y0059427D01*
X0180604Y0059531D01*
X0180618Y0059635D01*
X0180636Y0059739D01*
X0180658Y0059841D01*
X0180683Y0059943D01*
X0180713Y0060044D01*
X0180746Y0060143D01*
X0180783Y0060241D01*
X0180824Y0060338D01*
X0180869Y0060433D01*
X0180917Y0060526D01*
X0180968Y0060618D01*
X0181024Y0060707D01*
X0181082Y0060794D01*
X0181144Y0060879D01*
X0181208Y0060962D01*
X0181276Y0061042D01*
X0181347Y0061119D01*
X0181421Y0061193D01*
X0181498Y0061265D01*
X0181577Y0061334D01*
X0181659Y0061399D01*
X0181743Y0061462D01*
X0181830Y0061521D01*
X0181919Y0061577D01*
X0182010Y0061630D01*
X0182103Y0061679D01*
X0182197Y0061724D01*
X0182293Y0061766D01*
X0182391Y0061804D01*
X0182490Y0061838D01*
X0182591Y0061869D01*
X0182692Y0061895D01*
X0182795Y0061918D01*
X0182898Y0061937D01*
X0183002Y0061952D01*
X0183106Y0061963D01*
X0183211Y0061970D01*
X0183316Y0061973D01*
X0183421Y0061972D01*
X0183526Y0061967D01*
X0183630Y0061958D01*
X0183734Y0061945D01*
X0183838Y0061928D01*
X0183941Y0061907D01*
X0184043Y0061882D01*
X0184144Y0061854D01*
X0184243Y0061821D01*
X0184342Y0061785D01*
X0184439Y0061745D01*
X0184534Y0061702D01*
X0184628Y0061654D01*
X0184720Y0061604D01*
X0184810Y0061550D01*
X0184898Y0061492D01*
X0184983Y0061431D01*
X0185066Y0061367D01*
X0185147Y0061300D01*
X0185225Y0061230D01*
X0185300Y0061156D01*
X0185372Y0061081D01*
X0185442Y0061002D01*
X0185508Y0060921D01*
X0185572Y0060837D01*
X0185632Y0060751D01*
X0185688Y0060663D01*
X0185742Y0060572D01*
X0185792Y0060480D01*
X0185838Y0060386D01*
X0185881Y0060290D01*
X0185920Y0060192D01*
X0185955Y0060094D01*
X0185986Y0059993D01*
X0186014Y0059892D01*
X0186038Y0059790D01*
X0186058Y0059687D01*
X0186074Y0059583D01*
X0186086Y0059479D01*
X0186094Y0059374D01*
X0186098Y0059269D01*
X0186098Y0059165D01*
X0186094Y0059060D01*
X0186086Y0058955D01*
X0186074Y0058851D01*
X0186058Y0058747D01*
X0186038Y0058644D01*
X0186014Y0058542D01*
X0185986Y0058441D01*
X0185955Y0058340D01*
X0185920Y0058242D01*
X0185881Y0058144D01*
X0185838Y0058048D01*
X0185792Y0057954D01*
X0185742Y0057862D01*
X0185688Y0057771D01*
X0185632Y0057683D01*
X0185572Y0057597D01*
X0185508Y0057513D01*
X0185442Y0057432D01*
X0185372Y0057353D01*
X0185300Y0057278D01*
X0185225Y0057204D01*
X0185147Y0057134D01*
X0185066Y0057067D01*
X0184983Y0057003D01*
X0184898Y0056942D01*
X0184810Y0056884D01*
X0184720Y0056830D01*
X0184628Y0056780D01*
X0184534Y0056732D01*
X0184439Y0056689D01*
X0184342Y0056649D01*
X0184243Y0056613D01*
X0184144Y0056580D01*
X0184043Y0056552D01*
X0183941Y0056527D01*
X0183838Y0056506D01*
X0183734Y0056489D01*
X0183630Y0056476D01*
X0183526Y0056467D01*
X0183421Y0056462D01*
X0183316Y0056461D01*
X0183211Y0056464D01*
X0183106Y0056471D01*
X0183002Y0056482D01*
X0182898Y0056497D01*
X0182795Y0056516D01*
X0182692Y0056539D01*
X0182591Y0056565D01*
X0182490Y0056596D01*
X0182391Y0056630D01*
X0182293Y0056668D01*
X0182197Y0056710D01*
X0182103Y0056755D01*
X0182010Y0056804D01*
X0181919Y0056857D01*
X0181830Y0056913D01*
X0181743Y0056972D01*
X0181659Y0057035D01*
X0181577Y0057100D01*
X0181498Y0057169D01*
X0181421Y0057241D01*
X0181347Y0057315D01*
X0181276Y0057392D01*
X0181208Y0057472D01*
X0181144Y0057555D01*
X0181082Y0057640D01*
X0181024Y0057727D01*
X0180968Y0057816D01*
X0180917Y0057908D01*
X0180869Y0058001D01*
X0180824Y0058096D01*
X0180783Y0058193D01*
X0180746Y0058291D01*
X0180713Y0058390D01*
X0180683Y0058491D01*
X0180658Y0058593D01*
X0180636Y0058695D01*
X0180618Y0058799D01*
X0180604Y0058903D01*
X0180594Y0059007D01*
X0180588Y0059112D01*
X0180586Y0059217D01*
M02*
